<mxfile host="app.diagrams.net" modified="2023-03-07T06:48:10.695Z" agent="5.0 (Macintosh; Intel Mac OS X 10_15_7) AppleWebKit/537.36 (KHTML, like Gecko) Chrome/110.0.0.0 Safari/537.36" etag="3j26s9l6IqF0uX0g2KDq" version="21.0.2" type="github">
  <diagram name="第 1 页" id="KXvRIJieRz1xJ87ILZrd">
    <mxGraphModel dx="1306" dy="836" grid="1" gridSize="10" guides="1" tooltips="1" connect="1" arrows="1" fold="1" page="1" pageScale="1" pageWidth="2339" pageHeight="3300" math="0" shadow="0">
      <root>
        <mxCell id="0" />
        <mxCell id="1" parent="0" />
        <mxCell id="7sC5b3kH_huM1lef9ynQ-4" style="edgeStyle=orthogonalEdgeStyle;rounded=1;orthogonalLoop=1;jettySize=auto;html=1;exitX=1;exitY=0.5;exitDx=0;exitDy=0;entryX=0;entryY=0.5;entryDx=0;entryDy=0;" edge="1" parent="1" source="7sC5b3kH_huM1lef9ynQ-1" target="7sC5b3kH_huM1lef9ynQ-2">
          <mxGeometry relative="1" as="geometry" />
        </mxCell>
        <mxCell id="7sC5b3kH_huM1lef9ynQ-1" value="fetch_cinema_list_task.go" style="rounded=0;whiteSpace=wrap;html=1;" vertex="1" parent="1">
          <mxGeometry x="190" y="180" width="220" height="40" as="geometry" />
        </mxCell>
        <mxCell id="7sC5b3kH_huM1lef9ynQ-8" style="edgeStyle=orthogonalEdgeStyle;rounded=0;orthogonalLoop=1;jettySize=auto;html=1;exitX=1;exitY=0.5;exitDx=0;exitDy=0;entryX=0;entryY=0.5;entryDx=0;entryDy=0;" edge="1" parent="1" source="7sC5b3kH_huM1lef9ynQ-2" target="7sC5b3kH_huM1lef9ynQ-7">
          <mxGeometry relative="1" as="geometry" />
        </mxCell>
        <mxCell id="7sC5b3kH_huM1lef9ynQ-2" value="遍历供应商全量的cinema 列表" style="rounded=0;whiteSpace=wrap;html=1;" vertex="1" parent="1">
          <mxGeometry x="510" y="170" width="120" height="60" as="geometry" />
        </mxCell>
        <mxCell id="7sC5b3kH_huM1lef9ynQ-5" value="" style="shape=cylinder3;whiteSpace=wrap;html=1;boundedLbl=1;backgroundOutline=1;size=15;" vertex="1" parent="1">
          <mxGeometry x="720" y="570" width="60" height="80" as="geometry" />
        </mxCell>
        <mxCell id="7sC5b3kH_huM1lef9ynQ-7" value="cinema_tab" style="rounded=0;whiteSpace=wrap;html=1;" vertex="1" parent="1">
          <mxGeometry x="790" y="180" width="100" height="40" as="geometry" />
        </mxCell>
      </root>
    </mxGraphModel>
  </diagram>
</mxfile>
